<svg width="353" height="745" viewBox="0 0 353 745" fill="none" xmlns="http://www.w3.org/2000/svg">
<path d="M350 202C351.105 202 352 202.895 352 204V256C352 257.105 351.105 258 350 258V202Z" fill="url(#paint0_linear_4202_10)"/>
<path d="M350 296C351.105 296 352 296.895 352 298V398C352 399.105 351.105 400 350 400V296Z" fill="url(#paint1_linear_4202_10)"/>
<rect x="60" y="1" width="230" height="7" fill="url(#paint2_linear_4202_10)"/>
<rect x="60" y="738" width="230" height="7" fill="url(#paint3_linear_4202_10)"/>
<rect x="3.05176e-05" y="685" width="624" height="7.00003" transform="rotate(-90 3.05176e-05 685)" fill="url(#paint4_linear_4202_10)"/>
<rect x="350" y="61" width="624" height="7.00003" transform="rotate(90 350 61)" fill="url(#paint5_linear_4202_10)"/>
<path d="M350 202C351.105 202 352 202.895 352 204V256C352 257.105 351.105 258 350 258V202Z" fill="url(#paint6_linear_4202_10)"/>
<path d="M350 296C351.105 296 352 296.895 352 298V398C352 399.105 351.105 400 350 400V296Z" fill="url(#paint7_linear_4202_10)"/>
<rect x="60" y="1" width="230" height="7" fill="url(#paint8_linear_4202_10)"/>
<rect x="60" y="738" width="230" height="7" fill="url(#paint9_linear_4202_10)"/>
<rect x="3.05176e-05" y="685" width="624" height="7.00003" transform="rotate(-90 3.05176e-05 685)" fill="url(#paint10_linear_4202_10)"/>
<rect x="350" y="61" width="624" height="7.00003" transform="rotate(90 350 61)" fill="url(#paint11_linear_4202_10)"/>
<path fill-rule="evenodd" clip-rule="evenodd" d="M60 738C31.0051 738 7.00003 713.995 7.00003 685H3.05176e-05C3.05176e-05 717.861 27.1391 745 60 745V738Z" fill="url(#paint12_radial_4202_10)"/>
<path d="M20.9571 727.678C32.7484 739.525 46.2191 744 60 744V740C43.0185 740 29.4497 732.108 21.9405 726.633C19.2414 724.666 18.6008 725.311 20.9571 727.678Z" fill="url(#paint13_linear_4202_10)"/>
<path d="M14.8232 720.893C4.70757 709.334 1.00012 695.669 1.00012 685L5.52737 685C5.52737 700.554 11.458 712.762 15.9758 719.92C17.7995 722.809 17.0732 723.465 14.8232 720.893Z" fill="url(#paint14_linear_4202_10)"/>
<path fill-rule="evenodd" clip-rule="evenodd" d="M290 738C318.995 738 343 713.995 343 685H350C350 717.861 322.861 745 290 745V738Z" fill="url(#paint15_radial_4202_10)"/>
<path d="M329.043 727.678C317.252 739.525 303.781 744 290 744V740C306.982 740 320.55 732.108 328.06 726.633C330.759 724.666 331.399 725.311 329.043 727.678Z" fill="url(#paint16_linear_4202_10)"/>
<path d="M335.177 720.893C345.292 709.334 349 695.669 349 685L344.473 685C344.473 700.554 338.542 712.762 334.024 719.92C332.201 722.809 332.927 723.465 335.177 720.893Z" fill="url(#paint17_linear_4202_10)"/>
<path fill-rule="evenodd" clip-rule="evenodd" d="M60 8C31.0051 8 7.00003 32.0051 7.00003 61H3.05176e-05C3.05176e-05 28.1391 27.1391 1 60 1V8Z" fill="url(#paint18_radial_4202_10)"/>
<path d="M20.9571 18.3218C32.7484 6.47457 46.2191 2 60 2V6C43.0185 6 29.4497 13.8918 21.9405 19.3666C19.2414 21.3344 18.6008 20.6893 20.9571 18.3218Z" fill="url(#paint19_linear_4202_10)"/>
<path d="M14.8232 25.1065C4.70757 36.6662 1.00012 50.3312 1.00012 61L5.52737 61C5.52737 45.4457 11.458 33.2377 15.9758 26.0799C17.7995 23.1905 17.0732 22.5353 14.8232 25.1065Z" fill="url(#paint20_linear_4202_10)"/>
<path fill-rule="evenodd" clip-rule="evenodd" d="M290 8C318.995 8 343 32.0051 343 61H350C350 28.1391 322.861 1 290 1V8Z" fill="url(#paint21_radial_4202_10)"/>
<path d="M329.043 18.3218C317.252 6.47457 303.781 2 290 2V6C306.982 6 320.55 13.8918 328.06 19.3666C330.759 21.3344 331.399 20.6893 329.043 18.3218Z" fill="url(#paint22_linear_4202_10)"/>
<path d="M335.177 25.1065C345.292 36.6662 349 50.3312 349 61L344.473 61C344.473 45.4457 338.542 33.2377 334.024 26.0799C332.201 23.1905 332.927 22.5353 335.177 25.1065Z" fill="url(#paint23_linear_4202_10)"/>
<rect x="3.05176e-05" y="116" width="7" height="8" fill="black" fill-opacity="0.2"/>
<rect width="7" height="8" transform="matrix(1 0 0 -1 3.05176e-05 670)" fill="black" fill-opacity="0.2"/>
<rect x="343" y="116" width="7" height="8" fill="black" fill-opacity="0.2"/>
<rect width="7" height="8" transform="matrix(1 0 0 -1 343 670)" fill="black" fill-opacity="0.2"/>
<rect x="171" y="8" width="7" height="8" transform="rotate(-90 171 8)" fill="black" fill-opacity="0.2"/>
<rect width="7" height="8" transform="matrix(-4.37114e-08 1 1 4.37114e-08 212.5 738)" fill="black" fill-opacity="0.2"/>
<g filter="url(#filter0_di_4202_10)">
<circle cx="175" cy="42" r="11" fill="#080808"/>
</g>
<g filter="url(#filter1_d_4202_10)">
<circle cx="175" cy="42" r="6" fill="black"/>
<circle cx="175" cy="42" r="5.5" stroke="white" stroke-opacity="0.1"/>
</g>
<circle cx="175" cy="42" r="4.5" fill="url(#paint24_linear_4202_10)" stroke="black"/>
<g style="mix-blend-mode:lighten">
<path d="M176.562 44.5619C177.424 44.0349 178 43.0847 178 42C178 40.3431 176.657 39 175 39C173.915 39 172.965 39.5757 172.438 40.4381C172.893 40.1602 173.428 40 174 40C175.657 40 177 41.3431 177 43C177 43.5722 176.84 44.1069 176.562 44.5619Z" fill="url(#paint25_linear_4202_10)"/>
</g>
<g style="mix-blend-mode:screen">
<path d="M172.264 40.7668C172.095 41.143 172 41.5605 172 42C172 43.6569 173.343 45 175 45C175.44 45 175.857 44.9055 176.233 44.7357C174.34 44.1533 172.847 42.6597 172.264 40.7668Z" fill="url(#paint26_linear_4202_10)"/>
</g>
<defs>
<filter id="filter0_di_4202_10" x="164" y="31" width="22" height="23" filterUnits="userSpaceOnUse" color-interpolation-filters="sRGB">
<feFlood flood-opacity="0" result="BackgroundImageFix"/>
<feColorMatrix in="SourceAlpha" type="matrix" values="0 0 0 0 0 0 0 0 0 0 0 0 0 0 0 0 0 0 127 0" result="hardAlpha"/>
<feOffset dy="1"/>
<feComposite in2="hardAlpha" operator="out"/>
<feColorMatrix type="matrix" values="0 0 0 0 1 0 0 0 0 1 0 0 0 0 1 0 0 0 0.1 0"/>
<feBlend mode="normal" in2="BackgroundImageFix" result="effect1_dropShadow_4202_10"/>
<feBlend mode="normal" in="SourceGraphic" in2="effect1_dropShadow_4202_10" result="shape"/>
<feColorMatrix in="SourceAlpha" type="matrix" values="0 0 0 0 0 0 0 0 0 0 0 0 0 0 0 0 0 0 127 0" result="hardAlpha"/>
<feOffset dy="1"/>
<feComposite in2="hardAlpha" operator="arithmetic" k2="-1" k3="1"/>
<feColorMatrix type="matrix" values="0 0 0 0 0 0 0 0 0 0 0 0 0 0 0 0 0 0 0.4 0"/>
<feBlend mode="normal" in2="shape" result="effect2_innerShadow_4202_10"/>
</filter>
<filter id="filter1_d_4202_10" x="169" y="36" width="12" height="13" filterUnits="userSpaceOnUse" color-interpolation-filters="sRGB">
<feFlood flood-opacity="0" result="BackgroundImageFix"/>
<feColorMatrix in="SourceAlpha" type="matrix" values="0 0 0 0 0 0 0 0 0 0 0 0 0 0 0 0 0 0 127 0" result="hardAlpha"/>
<feOffset dy="1"/>
<feComposite in2="hardAlpha" operator="out"/>
<feColorMatrix type="matrix" values="0 0 0 0 0 0 0 0 0 0 0 0 0 0 0 0 0 0 0.3 0"/>
<feBlend mode="normal" in2="BackgroundImageFix" result="effect1_dropShadow_4202_10"/>
<feBlend mode="normal" in="SourceGraphic" in2="effect1_dropShadow_4202_10" result="shape"/>
</filter>
<linearGradient id="paint0_linear_4202_10" x1="351" y1="202" x2="351" y2="258" gradientUnits="userSpaceOnUse">
<stop stop-color="#FEF0F2"/>
<stop offset="0.055" stop-color="#8D7277"/>
<stop offset="0.0793102" stop-color="#988185"/>
<stop offset="0.100079" stop-color="#A88A8F"/>
<stop offset="0.939936" stop-color="#7E676B"/>
<stop offset="0.946426" stop-color="#F8EDEE"/>
<stop offset="1" stop-color="#FEEBEE"/>
</linearGradient>
<linearGradient id="paint1_linear_4202_10" x1="351" y1="296" x2="351" y2="400" gradientUnits="userSpaceOnUse">
<stop stop-color="#F9E9EC"/>
<stop offset="0.04" stop-color="#8C7377"/>
<stop offset="0.05" stop-color="#A38F92"/>
<stop offset="0.100079" stop-color="#A9898F"/>
<stop offset="0.97" stop-color="#8C7377"/>
<stop offset="0.98" stop-color="#F0DBDF"/>
<stop offset="1" stop-color="#F0DBDF"/>
</linearGradient>
<linearGradient id="paint2_linear_4202_10" x1="172.641" y1="8" x2="172.641" y2="1" gradientUnits="userSpaceOnUse">
<stop stop-color="#8C7377"/>
<stop offset="0.08" stop-color="#674C50"/>
<stop offset="0.22" stop-color="#3C282B"/>
<stop offset="0.285714" stop-color="#2E1F21"/>
<stop offset="0.286272" stop-color="#F3D7DB"/>
<stop offset="0.856585" stop-color="#FEFAFB"/>
<stop offset="0.856585" stop-color="#664C50"/>
<stop offset="1" stop-color="#988184"/>
</linearGradient>
<linearGradient id="paint3_linear_4202_10" x1="175" y1="738" x2="175" y2="745" gradientUnits="userSpaceOnUse">
<stop stop-color="#8C7377"/>
<stop offset="0.08" stop-color="#674C51"/>
<stop offset="0.22" stop-color="#3C282B"/>
<stop offset="0.285714" stop-color="#2E1F21"/>
<stop offset="0.286272" stop-color="#F3D7DB"/>
<stop offset="0.856585" stop-color="#FEFAFB"/>
<stop offset="0.856585" stop-color="#664C50"/>
<stop offset="1" stop-color="#988184"/>
</linearGradient>
<linearGradient id="paint4_linear_4202_10" x1="306" y1="692" x2="306" y2="685" gradientUnits="userSpaceOnUse">
<stop stop-color="#988185"/>
<stop offset="0.1" stop-color="#674C50"/>
<stop offset="0.2099" stop-color="#4D3337"/>
<stop offset="0.21" stop-color="#EBD1D5"/>
<stop offset="0.76" stop-color="#FEF0F3"/>
<stop offset="0.858259" stop-color="#FEF6F7"/>
<stop offset="0.86" stop-color="#584145"/>
<stop offset="0.98" stop-color="#988184"/>
</linearGradient>
<linearGradient id="paint5_linear_4202_10" x1="656" y1="68" x2="656" y2="61" gradientUnits="userSpaceOnUse">
<stop stop-color="#988185"/>
<stop offset="0.1" stop-color="#674C50"/>
<stop offset="0.2099" stop-color="#4D3337"/>
<stop offset="0.21" stop-color="#EBD1D5"/>
<stop offset="0.76" stop-color="#FEF0F3"/>
<stop offset="0.858259" stop-color="#FEF6F7"/>
<stop offset="0.86" stop-color="#584145"/>
<stop offset="0.98" stop-color="#988184"/>
</linearGradient>
<linearGradient id="paint6_linear_4202_10" x1="351" y1="202" x2="351" y2="258" gradientUnits="userSpaceOnUse">
<stop stop-color="#FEF0F2"/>
<stop offset="0.055" stop-color="#8D7277"/>
<stop offset="0.0793102" stop-color="#988185"/>
<stop offset="0.100079" stop-color="#A88A8F"/>
<stop offset="0.939936" stop-color="#7E676B"/>
<stop offset="0.946426" stop-color="#F8EDEE"/>
<stop offset="1" stop-color="#FEEBEE"/>
</linearGradient>
<linearGradient id="paint7_linear_4202_10" x1="351" y1="296" x2="351" y2="400" gradientUnits="userSpaceOnUse">
<stop stop-color="#F9E9EC"/>
<stop offset="0.04" stop-color="#8C7377"/>
<stop offset="0.05" stop-color="#A38F92"/>
<stop offset="0.100079" stop-color="#A9898F"/>
<stop offset="0.97" stop-color="#8C7377"/>
<stop offset="0.98" stop-color="#F0DBDF"/>
<stop offset="1" stop-color="#F0DBDF"/>
</linearGradient>
<linearGradient id="paint8_linear_4202_10" x1="172.641" y1="8" x2="172.641" y2="1" gradientUnits="userSpaceOnUse">
<stop stop-color="#8C7377"/>
<stop offset="0.08" stop-color="#674C50"/>
<stop offset="0.22" stop-color="#3C282B"/>
<stop offset="0.285714" stop-color="#2E1F21"/>
<stop offset="0.286272" stop-color="#F3D7DB"/>
<stop offset="0.856585" stop-color="#FEFAFB"/>
<stop offset="0.856585" stop-color="#664C50"/>
<stop offset="1" stop-color="#988184"/>
</linearGradient>
<linearGradient id="paint9_linear_4202_10" x1="175" y1="738" x2="175" y2="745" gradientUnits="userSpaceOnUse">
<stop stop-color="#8C7377"/>
<stop offset="0.08" stop-color="#674C51"/>
<stop offset="0.22" stop-color="#3C282B"/>
<stop offset="0.285714" stop-color="#2E1F21"/>
<stop offset="0.286272" stop-color="#F3D7DB"/>
<stop offset="0.856585" stop-color="#FEFAFB"/>
<stop offset="0.856585" stop-color="#664C50"/>
<stop offset="1" stop-color="#988184"/>
</linearGradient>
<linearGradient id="paint10_linear_4202_10" x1="306" y1="692" x2="306" y2="685" gradientUnits="userSpaceOnUse">
<stop stop-color="#988185"/>
<stop offset="0.1" stop-color="#674C50"/>
<stop offset="0.2099" stop-color="#4D3337"/>
<stop offset="0.21" stop-color="#EBD1D5"/>
<stop offset="0.76" stop-color="#FEF0F3"/>
<stop offset="0.858259" stop-color="#FEF6F7"/>
<stop offset="0.86" stop-color="#584145"/>
<stop offset="0.98" stop-color="#988184"/>
</linearGradient>
<linearGradient id="paint11_linear_4202_10" x1="656" y1="68" x2="656" y2="61" gradientUnits="userSpaceOnUse">
<stop stop-color="#988185"/>
<stop offset="0.1" stop-color="#674C50"/>
<stop offset="0.2099" stop-color="#4D3337"/>
<stop offset="0.21" stop-color="#EBD1D5"/>
<stop offset="0.76" stop-color="#FEF0F3"/>
<stop offset="0.858259" stop-color="#FEF6F7"/>
<stop offset="0.86" stop-color="#584145"/>
<stop offset="0.98" stop-color="#988184"/>
</linearGradient>
<radialGradient id="paint12_radial_4202_10" cx="0" cy="0" r="1" gradientTransform="matrix(-44 41.5001 41.5001 44.0002 59.5 685.5)" gradientUnits="userSpaceOnUse">
<stop offset="0.867457" stop-color="#988185"/>
<stop offset="0.879909" stop-color="#674C50"/>
<stop offset="0.902341" stop-color="#301D20"/>
<stop offset="0.946821" stop-color="#301D20"/>
<stop offset="0.967149" stop-color="#584145"/>
<stop offset="0.981589" stop-color="#988184"/>
</radialGradient>
<linearGradient id="paint13_linear_4202_10" x1="37.2936" y1="721.5" x2="37.2937" y2="743.5" gradientUnits="userSpaceOnUse">
<stop stop-color="#9D7B81"/>
<stop offset="0.83" stop-color="#F2D9DD"/>
<stop offset="0.95" stop-color="#FFEEF1"/>
<stop offset="1" stop-color="#FEF5F7"/>
</linearGradient>
<linearGradient id="paint14_linear_4202_10" x1="20.5124" y1="706.027" x2="1.08186" y2="706.027" gradientUnits="userSpaceOnUse">
<stop stop-color="#9D7B81"/>
<stop offset="0.83" stop-color="#F2D9DD"/>
<stop offset="0.95" stop-color="#FFEEF1"/>
<stop offset="1" stop-color="#FEF5F7"/>
</linearGradient>
<radialGradient id="paint15_radial_4202_10" cx="0" cy="0" r="1" gradientTransform="matrix(44 41.5001 -41.5001 44.0002 290.5 685.5)" gradientUnits="userSpaceOnUse">
<stop offset="0.867457" stop-color="#988185"/>
<stop offset="0.879909" stop-color="#674C50"/>
<stop offset="0.902341" stop-color="#301D20"/>
<stop offset="0.946821" stop-color="#301D20"/>
<stop offset="0.967149" stop-color="#584145"/>
<stop offset="0.981589" stop-color="#988184"/>
</radialGradient>
<linearGradient id="paint16_linear_4202_10" x1="312.706" y1="721.5" x2="312.706" y2="743.5" gradientUnits="userSpaceOnUse">
<stop stop-color="#9D7B81"/>
<stop offset="0.83" stop-color="#F2D9DD"/>
<stop offset="0.95" stop-color="#FFEEF1"/>
<stop offset="1" stop-color="#FEF5F7"/>
</linearGradient>
<linearGradient id="paint17_linear_4202_10" x1="329.488" y1="706.027" x2="348.918" y2="706.027" gradientUnits="userSpaceOnUse">
<stop stop-color="#9D7B81"/>
<stop offset="0.83" stop-color="#F2D9DD"/>
<stop offset="0.95" stop-color="#FFEEF1"/>
<stop offset="1" stop-color="#FEF5F7"/>
</linearGradient>
<radialGradient id="paint18_radial_4202_10" cx="0" cy="0" r="1" gradientTransform="matrix(-44 -41.5001 41.5001 -44.0002 59.5 60.5001)" gradientUnits="userSpaceOnUse">
<stop offset="0.867457" stop-color="#988185"/>
<stop offset="0.879909" stop-color="#674C50"/>
<stop offset="0.902341" stop-color="#301D20"/>
<stop offset="0.946821" stop-color="#301D20"/>
<stop offset="0.967149" stop-color="#584145"/>
<stop offset="0.981589" stop-color="#988184"/>
</radialGradient>
<linearGradient id="paint19_linear_4202_10" x1="37.2936" y1="24.5" x2="37.2937" y2="2.5" gradientUnits="userSpaceOnUse">
<stop stop-color="#9D7B81"/>
<stop offset="0.83" stop-color="#F2D9DD"/>
<stop offset="0.95" stop-color="#FFEEF1"/>
<stop offset="1" stop-color="#FEF5F7"/>
</linearGradient>
<linearGradient id="paint20_linear_4202_10" x1="20.5124" y1="39.9734" x2="1.08186" y2="39.9735" gradientUnits="userSpaceOnUse">
<stop stop-color="#9D7B81"/>
<stop offset="0.83" stop-color="#F2D9DD"/>
<stop offset="0.95" stop-color="#FFEEF1"/>
<stop offset="1" stop-color="#FEF5F7"/>
</linearGradient>
<radialGradient id="paint21_radial_4202_10" cx="0" cy="0" r="1" gradientTransform="matrix(44 -41.5001 -41.5001 -44.0002 290.5 60.5001)" gradientUnits="userSpaceOnUse">
<stop offset="0.867457" stop-color="#988185"/>
<stop offset="0.879909" stop-color="#674C50"/>
<stop offset="0.902341" stop-color="#301D20"/>
<stop offset="0.946821" stop-color="#301D20"/>
<stop offset="0.967149" stop-color="#584145"/>
<stop offset="0.981589" stop-color="#988184"/>
</radialGradient>
<linearGradient id="paint22_linear_4202_10" x1="312.706" y1="24.5" x2="312.706" y2="2.5" gradientUnits="userSpaceOnUse">
<stop stop-color="#9D7B81"/>
<stop offset="0.83" stop-color="#F2D9DD"/>
<stop offset="0.95" stop-color="#FFEEF1"/>
<stop offset="1" stop-color="#FEF5F7"/>
</linearGradient>
<linearGradient id="paint23_linear_4202_10" x1="329.488" y1="39.9734" x2="348.918" y2="39.9735" gradientUnits="userSpaceOnUse">
<stop stop-color="#9D7B81"/>
<stop offset="0.83" stop-color="#F2D9DD"/>
<stop offset="0.95" stop-color="#FFEEF1"/>
<stop offset="1" stop-color="#FEF5F7"/>
</linearGradient>
<linearGradient id="paint24_linear_4202_10" x1="178.5" y1="38.5" x2="172" y2="45" gradientUnits="userSpaceOnUse">
<stop stop-color="#705C5F"/>
<stop offset="0.495"/>
<stop offset="0.77" stop-color="#1D1617"/>
<stop offset="1" stop-color="#584145"/>
</linearGradient>
<linearGradient id="paint25_linear_4202_10" x1="177.083" y1="39.7091" x2="173.11" y2="43.6825" gradientUnits="userSpaceOnUse">
<stop stop-color="#6A54AA"/>
<stop offset="0.475"/>
</linearGradient>
<linearGradient id="paint26_linear_4202_10" x1="177.1" y1="39.9" x2="173.2" y2="43.8" gradientUnits="userSpaceOnUse">
<stop offset="0.77"/>
<stop offset="1" stop-color="#471F25"/>
</linearGradient>
</defs>
</svg>
